<svg width="133" height="41" viewBox="0 0 133 41" fill="none" xmlns="http://www.w3.org/2000/svg">
<rect width="133" height="41" rx="6" fill="#558FFF"/>
<path d="M18.49 20.1C18.49 19.1387 18.7047 18.28 19.134 17.524C19.5727 16.7587 20.1653 16.166 20.912 15.746C21.668 15.3167 22.5127 15.102 23.446 15.102C24.538 15.102 25.4947 15.382 26.316 15.942C27.1373 16.502 27.7113 17.2767 28.038 18.266H25.784C25.56 17.7993 25.2427 17.4493 24.832 17.216C24.4307 16.9827 23.964 16.866 23.432 16.866C22.8627 16.866 22.354 17.0013 21.906 17.272C21.4673 17.5333 21.122 17.9067 20.87 18.392C20.6273 18.8773 20.506 19.4467 20.506 20.1C20.506 20.744 20.6273 21.3133 20.87 21.808C21.122 22.2933 21.4673 22.6713 21.906 22.942C22.354 23.2033 22.8627 23.334 23.432 23.334C23.964 23.334 24.4307 23.2173 24.832 22.984C25.2427 22.7413 25.56 22.3867 25.784 21.92H28.038C27.7113 22.9187 27.1373 23.698 26.316 24.258C25.504 24.8087 24.5473 25.084 23.446 25.084C22.5127 25.084 21.668 24.874 20.912 24.454C20.1653 24.0247 19.5727 23.432 19.134 22.676C18.7047 21.92 18.49 21.0613 18.49 20.1ZM34.5561 25.126C33.8094 25.126 33.1374 24.9627 32.5401 24.636C31.9428 24.3 31.4714 23.8287 31.1261 23.222C30.7901 22.6153 30.6221 21.9153 30.6221 21.122C30.6221 20.3287 30.7948 19.6287 31.1401 19.022C31.4948 18.4153 31.9754 17.9487 32.5821 17.622C33.1888 17.286 33.8654 17.118 34.6121 17.118C35.3588 17.118 36.0354 17.286 36.6421 17.622C37.2488 17.9487 37.7248 18.4153 38.0701 19.022C38.4248 19.6287 38.6021 20.3287 38.6021 21.122C38.6021 21.9153 38.4201 22.6153 38.0561 23.222C37.7014 23.8287 37.2161 24.3 36.6001 24.636C35.9934 24.9627 35.3121 25.126 34.5561 25.126ZM34.5561 23.418C34.9108 23.418 35.2421 23.334 35.5501 23.166C35.8674 22.9887 36.1194 22.7273 36.3061 22.382C36.4928 22.0367 36.5861 21.6167 36.5861 21.122C36.5861 20.3847 36.3901 19.82 35.9981 19.428C35.6154 19.0267 35.1441 18.826 34.5841 18.826C34.0241 18.826 33.5528 19.0267 33.1701 19.428C32.7968 19.82 32.6101 20.3847 32.6101 21.122C32.6101 21.8593 32.7921 22.4287 33.1561 22.83C33.5294 23.222 33.9961 23.418 34.5561 23.418ZM45.7378 17.132C46.6618 17.132 47.4085 17.426 47.9778 18.014C48.5472 18.5927 48.8318 19.4047 48.8318 20.45V25H46.8718V20.716C46.8718 20.1 46.7178 19.6287 46.4098 19.302C46.1018 18.966 45.6818 18.798 45.1498 18.798C44.6085 18.798 44.1792 18.966 43.8618 19.302C43.5538 19.6287 43.3998 20.1 43.3998 20.716V25H41.4398V17.244H43.3998V18.21C43.6612 17.874 43.9925 17.6127 44.3938 17.426C44.8045 17.23 45.2525 17.132 45.7378 17.132ZM54.3777 18.854V22.606C54.3777 22.8673 54.4384 23.0587 54.5597 23.18C54.6904 23.292 54.905 23.348 55.2037 23.348H56.1137V25H54.8817C53.2297 25 52.4037 24.1973 52.4037 22.592V18.854H51.4797V17.244H52.4037V15.326H54.3777V17.244H56.1137V18.854H54.3777ZM58.4194 21.094C58.4194 20.31 58.5734 19.6147 58.8814 19.008C59.1988 18.4013 59.6234 17.9347 60.1554 17.608C60.6968 17.2813 61.2988 17.118 61.9614 17.118C62.5401 17.118 63.0441 17.2347 63.4734 17.468C63.9121 17.7013 64.2621 17.9953 64.5234 18.35V17.244H66.4974V25H64.5234V23.866C64.2714 24.23 63.9214 24.5333 63.4734 24.776C63.0348 25.0093 62.5261 25.126 61.9474 25.126C61.2941 25.126 60.6968 24.958 60.1554 24.622C59.6234 24.286 59.1988 23.8147 58.8814 23.208C58.5734 22.592 58.4194 21.8873 58.4194 21.094ZM64.5234 21.122C64.5234 20.646 64.4301 20.24 64.2434 19.904C64.0568 19.5587 63.8048 19.2973 63.4874 19.12C63.1701 18.9333 62.8294 18.84 62.4654 18.84C62.1014 18.84 61.7654 18.9287 61.4574 19.106C61.1494 19.2833 60.8974 19.5447 60.7014 19.89C60.5148 20.226 60.4214 20.6273 60.4214 21.094C60.4214 21.5607 60.5148 21.9713 60.7014 22.326C60.8974 22.6713 61.1494 22.9373 61.4574 23.124C61.7748 23.3107 62.1108 23.404 62.4654 23.404C62.8294 23.404 63.1701 23.3153 63.4874 23.138C63.8048 22.9513 64.0568 22.69 64.2434 22.354C64.4301 22.0087 64.5234 21.598 64.5234 21.122ZM69.3077 21.122C69.3077 20.3193 69.471 19.6193 69.7977 19.022C70.1244 18.4153 70.577 17.9487 71.1557 17.622C71.7344 17.286 72.397 17.118 73.1437 17.118C74.105 17.118 74.8984 17.3607 75.5237 17.846C76.1584 18.322 76.583 18.994 76.7977 19.862H74.6837C74.5717 19.526 74.3804 19.2647 74.1097 19.078C73.8484 18.882 73.5217 18.784 73.1297 18.784C72.5697 18.784 72.1264 18.9893 71.7997 19.4C71.473 19.8013 71.3097 20.3753 71.3097 21.122C71.3097 21.8593 71.473 22.4333 71.7997 22.844C72.1264 23.2453 72.5697 23.446 73.1297 23.446C73.923 23.446 74.441 23.0913 74.6837 22.382H76.7977C76.583 23.222 76.1584 23.8893 75.5237 24.384C74.889 24.8787 74.0957 25.126 73.1437 25.126C72.397 25.126 71.7344 24.9627 71.1557 24.636C70.577 24.3 70.1244 23.8333 69.7977 23.236C69.471 22.6293 69.3077 21.9247 69.3077 21.122ZM81.9156 18.854V22.606C81.9156 22.8673 81.9762 23.0587 82.0976 23.18C82.2282 23.292 82.4429 23.348 82.7416 23.348H83.6516V25H82.4196C80.7676 25 79.9416 24.1973 79.9416 22.592V18.854H79.0176V17.244H79.9416V15.326H81.9156V17.244H83.6516V18.854H81.9156ZM100.829 17.132C101.781 17.132 102.547 17.426 103.125 18.014C103.713 18.5927 104.007 19.4047 104.007 20.45V25H102.047V20.716C102.047 20.1093 101.893 19.6473 101.585 19.33C101.277 19.0033 100.857 18.84 100.325 18.84C99.7932 18.84 99.3686 19.0033 99.0512 19.33C98.7432 19.6473 98.5892 20.1093 98.5892 20.716V25H96.6292V20.716C96.6292 20.1093 96.4752 19.6473 96.1672 19.33C95.8592 19.0033 95.4392 18.84 94.9072 18.84C94.3659 18.84 93.9366 19.0033 93.6192 19.33C93.3112 19.6473 93.1572 20.1093 93.1572 20.716V25H91.1972V17.244H93.1572V18.182C93.4092 17.8553 93.7312 17.5987 94.1232 17.412C94.5246 17.2253 94.9632 17.132 95.4392 17.132C96.0459 17.132 96.5872 17.2627 97.0632 17.524C97.5392 17.776 97.9079 18.14 98.1692 18.616C98.4212 18.168 98.7852 17.8087 99.2612 17.538C99.7466 17.2673 100.269 17.132 100.829 17.132ZM114.477 20.954C114.477 21.234 114.459 21.486 114.421 21.71H108.751C108.798 22.27 108.994 22.7087 109.339 23.026C109.685 23.3433 110.109 23.502 110.613 23.502C111.341 23.502 111.859 23.1893 112.167 22.564H114.281C114.057 23.3107 113.628 23.9267 112.993 24.412C112.359 24.888 111.579 25.126 110.655 25.126C109.909 25.126 109.237 24.9627 108.639 24.636C108.051 24.3 107.589 23.8287 107.253 23.222C106.927 22.6153 106.763 21.9153 106.763 21.122C106.763 20.3193 106.927 19.6147 107.253 19.008C107.58 18.4013 108.037 17.9347 108.625 17.608C109.213 17.2813 109.89 17.118 110.655 17.118C111.393 17.118 112.051 17.2767 112.629 17.594C113.217 17.9113 113.67 18.364 113.987 18.952C114.314 19.5307 114.477 20.198 114.477 20.954ZM112.447 20.394C112.438 19.89 112.256 19.4887 111.901 19.19C111.547 18.882 111.113 18.728 110.599 18.728C110.114 18.728 109.703 18.8773 109.367 19.176C109.041 19.4653 108.84 19.8713 108.765 20.394H112.447Z" fill="white"/>
</svg>
