<svg width="128" height="41" viewBox="0 0 128 41" fill="none" xmlns="http://www.w3.org/2000/svg">
<rect width="128" height="41" rx="6" fill="#558FFF"/>
<path d="M27.744 15.228L24.16 25H21.78L18.196 15.228H20.296L22.984 22.998L25.658 15.228H27.744ZM31.3131 16.32C30.9678 16.32 30.6785 16.2127 30.4451 15.998C30.2211 15.774 30.1091 15.4987 30.1091 15.172C30.1091 14.8453 30.2211 14.5747 30.4451 14.36C30.6785 14.136 30.9678 14.024 31.3131 14.024C31.6585 14.024 31.9431 14.136 32.1671 14.36C32.4005 14.5747 32.5171 14.8453 32.5171 15.172C32.5171 15.4987 32.4005 15.774 32.1671 15.998C31.9431 16.2127 31.6585 16.32 31.3131 16.32ZM32.2791 17.244V25H30.3191V17.244H32.2791ZM42.8256 20.954C42.8256 21.234 42.8069 21.486 42.7696 21.71H37.0996C37.1463 22.27 37.3423 22.7087 37.6876 23.026C38.0329 23.3433 38.4576 23.502 38.9616 23.502C39.6896 23.502 40.2076 23.1893 40.5156 22.564H42.6296C42.4056 23.3107 41.9763 23.9267 41.3416 24.412C40.7069 24.888 39.9276 25.126 39.0036 25.126C38.2569 25.126 37.5849 24.9627 36.9876 24.636C36.3996 24.3 35.9376 23.8287 35.6016 23.222C35.2749 22.6153 35.1116 21.9153 35.1116 21.122C35.1116 20.3193 35.2749 19.6147 35.6016 19.008C35.9283 18.4013 36.3856 17.9347 36.9736 17.608C37.5616 17.2813 38.2383 17.118 39.0036 17.118C39.7409 17.118 40.3989 17.2767 40.9776 17.594C41.5656 17.9113 42.0183 18.364 42.3356 18.952C42.6623 19.5307 42.8256 20.198 42.8256 20.954ZM40.7956 20.394C40.7863 19.89 40.6043 19.4887 40.2496 19.19C39.8949 18.882 39.4609 18.728 38.9476 18.728C38.4623 18.728 38.0516 18.8773 37.7156 19.176C37.3889 19.4653 37.1883 19.8713 37.1136 20.394H40.7956ZM56.4082 17.244L54.1402 25H52.0262L50.6122 19.582L49.1982 25H47.0702L44.7882 17.244H46.7762L48.1482 23.152L49.6322 17.244H51.7042L53.1602 23.138L54.5322 17.244H56.4082ZM67.0207 15.228C68.0473 15.228 68.948 15.4287 69.7227 15.83C70.5067 16.2313 71.1087 16.8053 71.5287 17.552C71.958 18.2893 72.1727 19.148 72.1727 20.128C72.1727 21.108 71.958 21.9667 71.5287 22.704C71.1087 23.432 70.5067 23.9967 69.7227 24.398C68.948 24.7993 68.0473 25 67.0207 25H63.6047V15.228H67.0207ZM66.9507 23.334C67.9773 23.334 68.7707 23.054 69.3307 22.494C69.8907 21.934 70.1707 21.1453 70.1707 20.128C70.1707 19.1107 69.8907 18.3173 69.3307 17.748C68.7707 17.1693 67.9773 16.88 66.9507 16.88H65.5647V23.334H66.9507ZM82.2498 20.954C82.2498 21.234 82.2312 21.486 82.1938 21.71H76.5238C76.5705 22.27 76.7665 22.7087 77.1118 23.026C77.4572 23.3433 77.8818 23.502 78.3858 23.502C79.1138 23.502 79.6318 23.1893 79.9398 22.564H82.0538C81.8298 23.3107 81.4005 23.9267 80.7658 24.412C80.1312 24.888 79.3518 25.126 78.4278 25.126C77.6812 25.126 77.0092 24.9627 76.4118 24.636C75.8238 24.3 75.3618 23.8287 75.0258 23.222C74.6992 22.6153 74.5358 21.9153 74.5358 21.122C74.5358 20.3193 74.6992 19.6147 75.0258 19.008C75.3525 18.4013 75.8098 17.9347 76.3978 17.608C76.9858 17.2813 77.6625 17.118 78.4278 17.118C79.1652 17.118 79.8232 17.2767 80.4018 17.594C80.9898 17.9113 81.4425 18.364 81.7598 18.952C82.0865 19.5307 82.2498 20.198 82.2498 20.954ZM80.2198 20.394C80.2105 19.89 80.0285 19.4887 79.6738 19.19C79.3192 18.882 78.8852 18.728 78.3718 18.728C77.8865 18.728 77.4758 18.8773 77.1398 19.176C76.8132 19.4653 76.6125 19.8713 76.5378 20.394H80.2198ZM94.7125 17.132C95.6645 17.132 96.4298 17.426 97.0085 18.014C97.5965 18.5927 97.8905 19.4047 97.8905 20.45V25H95.9305V20.716C95.9305 20.1093 95.7765 19.6473 95.4685 19.33C95.1605 19.0033 94.7405 18.84 94.2085 18.84C93.6765 18.84 93.2518 19.0033 92.9345 19.33C92.6265 19.6473 92.4725 20.1093 92.4725 20.716V25H90.5125V20.716C90.5125 20.1093 90.3585 19.6473 90.0505 19.33C89.7425 19.0033 89.3225 18.84 88.7905 18.84C88.2491 18.84 87.8198 19.0033 87.5025 19.33C87.1945 19.6473 87.0405 20.1093 87.0405 20.716V25H85.0805V17.244H87.0405V18.182C87.2925 17.8553 87.6145 17.5987 88.0065 17.412C88.4078 17.2253 88.8465 17.132 89.3225 17.132C89.9291 17.132 90.4705 17.2627 90.9465 17.524C91.4225 17.776 91.7911 18.14 92.0525 18.616C92.3045 18.168 92.6685 17.8087 93.1445 17.538C93.6298 17.2673 94.1525 17.132 94.7125 17.132ZM104.594 25.126C103.848 25.126 103.176 24.9627 102.578 24.636C101.981 24.3 101.51 23.8287 101.164 23.222C100.828 22.6153 100.66 21.9153 100.66 21.122C100.66 20.3287 100.833 19.6287 101.178 19.022C101.533 18.4153 102.014 17.9487 102.62 17.622C103.227 17.286 103.904 17.118 104.65 17.118C105.397 17.118 106.074 17.286 106.68 17.622C107.287 17.9487 107.763 18.4153 108.108 19.022C108.463 19.6287 108.64 20.3287 108.64 21.122C108.64 21.9153 108.458 22.6153 108.094 23.222C107.74 23.8287 107.254 24.3 106.638 24.636C106.032 24.9627 105.35 25.126 104.594 25.126ZM104.594 23.418C104.949 23.418 105.28 23.334 105.588 23.166C105.906 22.9887 106.158 22.7273 106.344 22.382C106.531 22.0367 106.624 21.6167 106.624 21.122C106.624 20.3847 106.428 19.82 106.036 19.428C105.654 19.0267 105.182 18.826 104.622 18.826C104.062 18.826 103.591 19.0267 103.208 19.428C102.835 19.82 102.648 20.3847 102.648 21.122C102.648 21.8593 102.83 22.4287 103.194 22.83C103.568 23.222 104.034 23.418 104.594 23.418Z" fill="white"/>
</svg>
